<svg version="1.1" viewBox="0.0 0.0 256.0 256.0" fill="none" stroke="none" stroke-linecap="square" stroke-miterlimit="10" xmlns:xlink="http://www.w3.org/1999/xlink" xmlns="http://www.w3.org/2000/svg"><clipPath id="p.0"><path d="m0 0l256.0 0l0 256.0l-256.0 0l0 -256.0z" clip-rule="nonzero"/></clipPath><g clip-path="url(#p.0)"><path fill="#000000" fill-opacity="0.0" d="m0 0l256.0 0l0 256.0l-256.0 0z" fill-rule="evenodd"/><path fill="#000000" fill-opacity="0.0" d="m39.43832 51.923885l30.960629 0l0 0l46.44095 0l108.362206 0l0 77.055115l0 0l0 33.02362l0 22.015747l-108.362206 0l-67.758575 36.652252l21.31763 -36.652252l-30.960629 0l0 -22.015747l0 -33.02362l0 0z" fill-rule="evenodd"/><path stroke="#ffffff" stroke-width="16.0" stroke-linejoin="round" stroke-linecap="butt" d="m39.43832 51.923885l30.960629 0l0 0l46.44095 0l108.362206 0l0 77.055115l0 0l0 33.02362l0 22.015747l-108.362206 0l-67.758575 36.652252l21.31763 -36.652252l-30.960629 0l0 -22.015747l0 -33.02362l0 0z" fill-rule="evenodd"/><path fill="#000000" fill-opacity="0.0" d="m105.86352 46.062992l171.30707 0l0 57.10236l-171.30707 0z" fill-rule="evenodd"/><path fill="#ffffff" d="m126.91039 129.50424l-3.421875 -34.875l0 -16.125l14.249992 0l0 16.125l-3.375 34.875l-7.4531174 0zm-2.859375 17.71875l0 -13.171875l13.171867 0l0 13.171875l-13.171867 0z" fill-rule="nonzero"/></g></svg>