<svg version="1.1" viewBox="0.0 0.0 666.6666666666666 666.6666666666666" fill="none" stroke="none" stroke-linecap="square" stroke-miterlimit="10" xmlns:xlink="http://www.w3.org/1999/xlink" xmlns="http://www.w3.org/2000/svg"><clipPath id="p.0"><path d="m0 0l666.6667 0l0 666.6667l-666.6667 0l0 -666.6667z" clip-rule="nonzero"/></clipPath><g clip-path="url(#p.0)"><path fill="#000000" fill-opacity="0.0" d="m0 0l666.6667 0l0 666.6667l-666.6667 0z" fill-rule="evenodd"/><path fill="#d9d9d9" d="m168.41995 553.0l332.40945 0l0 -404.1003l-59.710724 -59.71071l-272.69873 0z" fill-rule="evenodd"/><path fill="#adadad" d="m441.11868 89.18898l11.942139 47.76857l47.768585 11.942139z" fill-rule="evenodd"/><path fill="#000000" fill-opacity="0.0" d="m441.11868 89.18898l11.942139 47.76857l47.768585 11.942139l-59.710724 -59.71071l-272.69873 0l0 463.81104l332.40945 0l0 -404.1003" fill-rule="evenodd"/><path fill="#000000" fill-opacity="0.0" d="m161.72699 376.54916l343.21262 0l0 68.0l-343.21262 0z" fill-rule="evenodd"/><path fill="#424a60" d="m242.26297 431.62915l-9.234375 0l-14.90625 -25.921875l-0.21875 0q0.453125 6.859375 0.453125 9.796875l0 16.125l-6.5 0l0 -34.265625l9.171875 0l14.875 25.65625l0.171875 0q-0.359375 -6.671875 -0.359375 -9.4375l0 -16.21875l6.546875 0l0 34.265625zm13.7578125 -13.15625q0 3.890625 1.265625 5.890625q1.28125 1.984375 4.171875 1.984375q2.859375 0 4.109375 -1.96875q1.25 -1.984375 1.25 -5.90625q0 -3.890625 -1.265625 -5.828125q-1.265625 -1.953125 -4.140625 -1.953125q-2.859375 0 -4.125 1.9375q-1.265625 1.9375 -1.265625 5.84375zm18.109375 0q0 6.40625 -3.375 10.015625q-3.375 3.609375 -9.390625 3.609375q-3.78125 0 -6.671875 -1.65625q-2.875 -1.65625 -4.421875 -4.75q-1.546875 -3.09375 -1.546875 -7.21875q0 -6.421875 3.34375 -9.984375q3.359375 -3.5625 9.4375 -3.5625q3.765625 0 6.640625 1.640625q2.890625 1.640625 4.4375 4.71875q1.546875 3.0625 1.546875 7.1875zm16.953125 7.921875q1.875 0 4.5 -0.8125l0 5.3125q-2.671875 1.203125 -6.5625 1.203125q-4.296875 0 -6.25 -2.171875q-1.953125 -2.171875 -1.953125 -6.5l0 -12.640625l-3.421875 0l0 -3.015625l3.9375 -2.390625l2.0625 -5.53125l4.5625 0l0 5.578125l7.34375 0l0 5.359375l-7.34375 0l0 12.640625q0 1.515625 0.859375 2.25q0.859375 0.71875 2.265625 0.71875zm29.976562 5.234375l-7.15625 0l0 -34.265625l19.640625 0l0 5.953125l-12.484375 0l0 8.828125l11.625 0l0 5.9375l-11.625 0l0 13.546875zm24.328125 -13.15625q0 3.890625 1.265625 5.890625q1.28125 1.984375 4.171875 1.984375q2.859375 0 4.109375 -1.96875q1.25 -1.984375 1.25 -5.90625q0 -3.890625 -1.265625 -5.828125q-1.265625 -1.953125 -4.140625 -1.953125q-2.859375 0 -4.125 1.9375q-1.265625 1.9375 -1.265625 5.84375zm18.109375 0q0 6.40625 -3.375 10.015625q-3.375 3.609375 -9.390625 3.609375q-3.78125 0 -6.671875 -1.65625q-2.875 -1.65625 -4.421875 -4.75q-1.546875 -3.09375 -1.546875 -7.21875q0 -6.421875 3.34375 -9.984375q3.359375 -3.5625 9.4375 -3.5625q3.765625 0 6.640625 1.640625q2.890625 1.640625 4.4375 4.71875q1.546875 3.0625 1.546875 7.1875zm24.46875 13.15625l-0.953125 -3.359375l-0.375 0q-1.15625 1.828125 -3.265625 2.828125q-2.109375 1.0 -4.796875 1.0q-4.625 0 -6.96875 -2.46875q-2.34375 -2.484375 -2.34375 -7.125l0 -17.078125l7.15625 0l0 15.296875q0 2.84375 1.0 4.265625q1.015625 1.40625 3.21875 1.40625q3.0 0 4.328125 -2.0q1.34375 -2.0 1.34375 -6.640625l0 -12.328125l7.140625 0l0 26.203125l-5.484375 0zm37.171875 0l-7.140625 0l0 -15.3125q0 -2.828125 -1.015625 -4.25q-1.0 -1.421875 -3.203125 -1.421875q-3.0 0 -4.34375 2.015625q-1.328125 2.0 -1.328125 6.640625l0 12.328125l-7.15625 0l0 -26.203125l5.46875 0l0.953125 3.34375l0.40625 0q1.1875 -1.890625 3.28125 -2.859375q2.109375 -0.984375 4.78125 -0.984375q4.5625 0 6.921875 2.484375q2.375 2.46875 2.375 7.125l0 17.09375zm15.65625 0.46875q-4.609375 0 -7.25 -3.578125q-2.640625 -3.59375 -2.640625 -9.953125q0 -6.4375 2.6875 -10.03125q2.6875 -3.609375 7.390625 -3.609375q4.953125 0 7.546875 3.84375l0.234375 0q-0.53125 -2.921875 -0.53125 -5.21875l0 -8.390625l7.171875 0l0 36.46875l-5.484375 0l-1.390625 -3.40625l-0.296875 0q-2.4375 3.875 -7.4375 3.875zm2.515625 -5.703125q2.734375 0 4.015625 -1.59375q1.28125 -1.59375 1.390625 -5.40625l0 -0.78125q0 -4.21875 -1.296875 -6.046875q-1.296875 -1.828125 -4.234375 -1.828125q-2.390625 0 -3.71875 2.03125q-1.3125 2.03125 -1.3125 5.890625q0 3.875 1.328125 5.8125q1.34375 1.921875 3.828125 1.921875z" fill-rule="nonzero"/><path fill="#ea9999" d="m202.35692 147.49344l261.95276 0l0 209.10236l-261.95276 0z" fill-rule="evenodd"/><path fill="#424a60" d="m236.70776 177.70364l193.24942 0l0 148.68134l-193.24942 0z" fill-rule="evenodd"/><path fill="#556080" d="m244.83406 184.86226l22.366531 0l0 19.595444l-22.366531 0z" fill-rule="evenodd"/><path fill="#556080" d="m275.59354 184.86226l22.366516 0l0 19.595444l-22.366516 0z" fill-rule="evenodd"/><path fill="#556080" d="m306.353 184.86226l22.366516 0l0 19.595444l-22.366516 0z" fill-rule="evenodd"/><path fill="#556080" d="m337.11246 184.86226l22.366547 0l0 19.595444l-22.366547 0z" fill-rule="evenodd"/><path fill="#556080" d="m367.87195 184.86226l22.366516 0l0 19.595444l-22.366516 0z" fill-rule="evenodd"/><path fill="#556080" d="m398.6314 184.86226l22.366516 0l0 19.595444l-22.366516 0z" fill-rule="evenodd"/><path fill="#556080" d="m245.25053 299.6419l22.366531 0l0 19.595459l-22.366531 0z" fill-rule="evenodd"/><path fill="#556080" d="m276.01 299.6419l22.366516 0l0 19.595459l-22.366516 0z" fill-rule="evenodd"/><path fill="#556080" d="m306.76947 299.6419l22.366547 0l0 19.595459l-22.366547 0z" fill-rule="evenodd"/><path fill="#556080" d="m337.52896 299.6419l22.366516 0l0 19.595459l-22.366516 0z" fill-rule="evenodd"/><path fill="#556080" d="m368.28842 299.6419l22.366516 0l0 19.595459l-22.366516 0z" fill-rule="evenodd"/><path fill="#556080" d="m399.04788 299.6419l22.366547 0l0 19.595459l-22.366547 0z" fill-rule="evenodd"/><path fill="#7383bf" d="m245.2519 209.81017l180.02086 0l0 83.75902l-180.02086 0z" fill-rule="evenodd"/><path fill="#ffffff" d="m324.31274 235.15654l35.16626 20.321213l-35.16626 20.321198z" fill-rule="evenodd"/><path fill="#b7b7b7" d="m221.93176 469.31235l0 0c0 -5.4184875 4.3925476 -9.811035 9.81102 -9.811035l203.1811 0c2.6020508 0 5.0975037 1.0336609 6.937439 2.8735962c1.8399353 1.8399048 2.8735657 4.335388 2.8735657 6.937439l0 0l0 0c0 5.418457 -4.392517 9.811005 -9.811005 9.811005l-203.1811 0c-5.4184723 0 -9.81102 -4.3925476 -9.81102 -9.811005z" fill-rule="evenodd"/><path fill="#b7b7b7" d="m223.2231 513.88715l0 0c0 -5.4184875 4.3925476 -9.811035 9.81102 -9.811035l203.18109 0c2.6020508 0 5.097534 1.0336609 6.9374695 2.8735962c1.8399048 1.8399048 2.8735657 4.335388 2.8735657 6.937439l0 0l0 0c0 5.418457 -4.3925476 9.811035 -9.811035 9.811035l-203.18109 0c-5.4184723 0 -9.81102 -4.392578 -9.81102 -9.811035z" fill-rule="evenodd"/></g></svg>